<?xml version="1.0" encoding="utf-8"?>
<!-- Generator: Adobe Illustrator 16.0.4, SVG Export Plug-In . SVG Version: 6.00 Build 0)  -->
<!DOCTYPE svg PUBLIC "-//W3C//DTD SVG 1.1//EN" "http://www.w3.org/Graphics/SVG/1.1/DTD/svg11.dtd">
<svg version="1.1" id="Layer_1" xmlns="http://www.w3.org/2000/svg" xmlns:xlink="http://www.w3.org/1999/xlink" x="0px" y="0px"
	 width="275px" height="65px" viewBox="0 0 275 65" enable-background="new 0 0 275 65" xml:space="preserve">
<g>
	<g>
		<g>
			<g>
				<polygon fill="#FFFFFF" points="213.478,16.076 213.478,50.503 189.383,16.096 189.383,16.092 189.383,16.076 189.368,16.076 
					185.052,16.076 185.052,58.053 189.383,58.053 189.383,23.641 213.478,58.051 213.478,58.053 213.479,58.053 217.808,58.053 
					217.808,56.687 217.808,16.076 				"/>
			</g>
			<g>
				<g>
					<path fill="#FFFFFF" d="M250.716,19.051c9.948,0,17.839,8.065,18.013,18.012c0.173,9.945-8.064,18.012-18.013,18.012
						c-9.946,0-17.839-8.066-18.013-18.012C232.531,27.117,240.77,19.051,250.716,19.051 M250.716,15.262
						c-12.021,0-22.01,9.783-21.802,21.801c0.21,12.019,9.78,21.801,21.802,21.801s22.009-9.782,21.801-21.801
						C272.307,25.045,262.737,15.262,250.716,15.262L250.716,15.262z"/>
				</g>
				<g>
					<g>
						<polygon fill="#FFFFFF" points="260.844,39.747 257.299,42.23 268.994,58.849 272.539,56.366 						"/>
					</g>
				</g>
			</g>
			<g>
				<g>
					<polygon fill="#FFFFFF" points="167.574,16.076 154.058,35.414 153.938,35.414 140.306,16.094 136.907,18.055 151.797,39.929 
						151.797,58.053 156.153,58.053 156.153,52.344 156.153,39.929 172.249,16.076 					"/>
				</g>
			</g>
		</g>
		<g>
			<path fill="#FFFFFF" d="M113.577,15.135c-7.519,0-13.41,4.963-13.41,11.301c0,6.664,6.078,9.02,11.372,10.328l4.572,1.137
				c7.881,1.962,9.496,4.623,9.496,8.017c0,5.323-4.767,9.041-11.59,9.041c-5.712,0-10.133-2.533-11.703-6.419l-3.496,2.016
				c2.347,5.077,8.083,8.438,15.198,8.438c9.052,0,15.623-5.5,15.623-13.076c0-7.805-6.708-10.477-12.555-11.933l-4.575-1.137
				c-7.302-1.805-8.31-4.147-8.31-6.412c0-4.143,4.029-7.267,9.376-7.267c5.107,0,9.162,2.59,9.792,6.126l3.605-2.079
				C125.367,18.471,120.076,15.135,113.577,15.135z"/>
		</g>
	</g>
	<path fill="#FFFFFF" d="M66.573,47.158l2.276-0.646v6.378l-8.505-2.405V37.708c2.729-0.909,5.234-2.431,7.327-4.526
		c3.551-3.549,5.507-8.27,5.507-13.29c0-5.018-1.958-9.74-5.51-13.292C64.12,3.051,59.4,1.096,54.381,1.096
		c-5.021,0-9.741,1.955-13.29,5.504c-4.484,4.483-7.486,9.484-10.138,13.897c-2.145,3.571-4.172,6.946-6.604,9.377
		c-2.014,2.014-4.692,3.124-7.542,3.124c-2.85,0-5.528-1.109-7.542-3.124c-2.015-2.014-3.124-4.693-3.124-7.542
		c0-2.85,1.109-5.527,3.124-7.543c2.012-2.014,4.691-3.123,7.542-3.123c2.694,0,5.23,1.005,7.203,2.817l2.5-3.571
		c-2.708-2.308-6.106-3.577-9.704-3.577c-4.007,0-7.772,1.561-10.603,4.392c-2.833,2.833-4.392,6.6-4.392,10.605
		s1.559,7.77,4.392,10.604c2.273,2.273,5.152,3.709,8.27,4.193v13.401v4.499V64h45.87v-9.016l12.834,3.634V40.785l-9.236,2.617
		L66.573,47.158z M56.013,59.67H18.804V37.18c3.248-0.429,6.251-1.89,8.606-4.243c2.809-2.807,4.967-6.402,7.255-10.209
		c2.646-4.403,5.38-8.958,9.486-13.065c2.732-2.731,6.364-4.236,10.229-4.236c3.865,0,7.495,1.505,10.227,4.236
		c2.734,2.735,4.24,6.367,4.24,10.23c0,3.863-1.504,7.496-4.237,10.229c-2.731,2.733-6.365,4.238-10.231,4.238h-0.003
		c-3.852,0-7.471-1.497-10.196-4.213l-0.008,0.012l0.006-0.012c-0.696-0.691-1.32-1.453-1.862-2.273l-2.614,3.734
		c0.597,0.746,1.258,1.434,1.958,2.08l-0.006,0.008c0.036,0.032,0.075,0.061,0.111,0.093c0.094,0.087,0.181,0.182,0.277,0.266
		l0.012-0.021c3.417,2.992,7.731,4.658,12.319,4.658h0.005c0.548,0,1.092-0.033,1.633-0.079V59.67z"/>
	<g>
		<path fill="#FFFFFF" d="M16.804,11.668c5.891,0,10.665,4.776,10.665,10.667s-4.774,10.666-10.665,10.666
			S6.138,28.226,6.138,22.335S10.913,11.668,16.804,11.668 M16.804,7.269c-8.307,0-15.065,6.759-15.065,15.066
			s6.758,15.066,15.065,15.066c8.307,0,15.064-6.759,15.064-15.066S25.11,7.269,16.804,7.269L16.804,7.269z"/>
	</g>
</g>
</svg>
